<?xml version="1.0" encoding="utf-8"?>
<!-- Generator: Adobe Illustrator 16.0.0, SVG Export Plug-In . SVG Version: 6.00 Build 0)  -->
<!DOCTYPE svg PUBLIC "-//W3C//DTD SVG 1.1//EN" "http://www.w3.org/Graphics/SVG/1.1/DTD/svg11.dtd">
<svg version="1.1" id="Layer_1" xmlns="http://www.w3.org/2000/svg" xmlns:xlink="http://www.w3.org/1999/xlink" x="0px" y="0px"
	 width="37.332px" height="38px" viewBox="0 0 37.332 38" enable-background="new 0 0 37.332 38" xml:space="preserve">
<g>
	<path fill="#424A60" d="M27.739,5.898c-0.315-0.195-0.726-0.095-0.917,0.218c-0.193,0.312-0.096,0.723,0.217,0.918
		c4.775,2.939,7.627,8.033,7.627,13.632c0,1.377-0.182,2.758-0.537,4.102c-0.094,0.355,0.117,0.72,0.473,0.814
		c0.059,0.016,0.117,0.022,0.172,0.022c0.297,0,0.563-0.198,0.645-0.495c0.385-1.455,0.58-2.949,0.58-4.443
		C35.998,14.603,32.912,9.082,27.739,5.898L27.739,5.898z M27.739,5.898"/>
	<path fill="#424A60" d="M24.781,35.454c-1.943,0.805-4.001,1.211-6.117,1.211c-4.482,0-8.792-1.9-11.815-5.221
		c-0.247-0.273-0.671-0.29-0.944-0.042c-0.27,0.247-0.289,0.67-0.042,0.94C9.14,35.937,13.808,38,18.664,38
		c2.292,0,4.521-0.442,6.625-1.315c0.342-0.14,0.504-0.53,0.361-0.872C25.51,35.474,25.119,35.312,24.781,35.454L24.781,35.454z
		 M24.781,35.454"/>
	<path fill="#424A60" d="M14.855,5.123c0.358-0.088,0.576-0.449,0.488-0.804c-0.088-0.358-0.449-0.576-0.804-0.491
		C7.199,5.621,1.914,11.891,1.383,19.43c-0.025,0.368,0.251,0.687,0.615,0.713c0.017,0,0.033,0,0.049,0
		c0.349,0,0.639-0.267,0.664-0.618C3.203,12.564,8.082,6.78,14.855,5.123L14.855,5.123z M14.855,5.123"/>
	<path fill="#00213E" d="M22.665,4c0,2.207-1.79,4.001-4.001,4.001c-2.207,0-3.997-1.794-3.997-4.001c0-2.21,1.79-4,3.997-4
		C20.875,0,22.665,1.79,22.665,4L22.665,4z M22.665,4"/>
	<path fill="#00213E" d="M8,28.664c0,2.211-1.793,4.001-4,4.001c-2.21,0-4-1.79-4-4.001c0-2.207,1.79-3.997,4-3.997
		C6.207,24.667,8,26.457,8,28.664L8,28.664z M8,28.664"/>
	<path fill="#00213E" d="M37.332,28.664c0,2.211-1.79,4.001-4,4.001c-2.211,0-4.001-1.79-4.001-4.001
		c0-2.207,1.79-3.997,4.001-3.997C35.542,24.667,37.332,26.457,37.332,28.664L37.332,28.664z M37.332,28.664"/>
</g>
</svg>
