<?xml version="1.0" encoding="utf-8"?>
<!-- Generator: Adobe Illustrator 16.0.0, SVG Export Plug-In . SVG Version: 6.00 Build 0)  -->
<!DOCTYPE svg PUBLIC "-//W3C//DTD SVG 1.1//EN" "http://www.w3.org/Graphics/SVG/1.1/DTD/svg11.dtd">
<svg version="1.1" id="Layer_1" xmlns="http://www.w3.org/2000/svg" xmlns:xlink="http://www.w3.org/1999/xlink" x="0px" y="0px"
	 width="39.832px" height="32.515px" viewBox="0 0 39.832 32.515" enable-background="new 0 0 39.832 32.515" xml:space="preserve">
<g>
	<g>
		<g id="Layer_5_8_">
			<g>
				<path fill="#00213E" d="M22.473,23.955c-0.709,0.435-1.616,0.674-2.557,0.674c-0.939,0-1.848-0.239-2.557-0.674l-11.574-7.1
					c0,0-1.045-0.64-1.045,0.811c0,1.647,0,6.59,0,6.59c0,0.065,0,0.396,0,0.499c0,3.734,6.795,7.76,15.176,7.76
					s15.176-4.025,15.176-7.76c0-0.103,0-0.434,0-0.499c0,0,0-5.242,0-6.989c0-1.164-0.743-0.596-0.743-0.596L22.473,23.955z"/>
				<path fill="#00213E" d="M39.166,11.209c0.889-0.545,0.889-1.438,0-1.983L21.533,0.408c-0.89-0.545-2.345-0.545-3.234,0
					L0.667,9.226c-0.89,0.546-0.89,1.438,0,1.983l17.632,10.814c0.89,0.546,2.345,0.546,3.234,0"/>
				<path fill="#00213E" d="M38.437,27.238c0-2.985,0-11.943,0-11.943s0.009-0.565-0.327-0.379c-0.27,0.149-0.93,0.518-1.162,0.72
					c-0.269,0.233-0.208,0.758-0.208,0.758s0,8.134,0,10.845c0,0.154-0.132,0.228-0.195,0.265c-0.609,0.358-1.02,1.02-1.02,1.778
					c0,1.14,0.924,2.063,2.063,2.063s2.063-0.924,2.063-2.063c0-0.762-0.413-1.425-1.026-1.782
					C38.564,27.463,38.437,27.393,38.437,27.238z"/>
			</g>
		</g>
	</g>
</g>
</svg>
