<?xml version="1.0" encoding="utf-8"?>
<!-- Generator: Adobe Illustrator 16.0.0, SVG Export Plug-In . SVG Version: 6.00 Build 0)  -->
<!DOCTYPE svg PUBLIC "-//W3C//DTD SVG 1.1//EN" "http://www.w3.org/Graphics/SVG/1.1/DTD/svg11.dtd">
<svg version="1.1" id="Layer_1" xmlns="http://www.w3.org/2000/svg" xmlns:xlink="http://www.w3.org/1999/xlink" x="0px" y="0px"
	 width="248.098px" height="24.99px" viewBox="0 0 248.098 24.99" enable-background="new 0 0 248.098 24.99" xml:space="preserve">
<g>
	<g>
		<g>
			<path fill="#ffffff" d="M1.802,24.547H0V0.442h1.802V24.547z"/>
			<path fill="#ffffff" d="M45.152,2.142H31.824v9.316h12.002v1.7H31.824v11.39h-1.768V0.442h15.096V2.142z"/>
			<path fill="#ffffff" d="M84.694,2.142H77.01v22.405h-1.768V2.142h-7.65v-1.7h17.102V2.142z"/>
			<path fill="#ffffff" d="M125.46,18.02c0,1.813-0.636,3.354-1.905,4.624c-1.587,1.563-3.865,2.346-6.834,2.346
				c-2.879,0-5.123-0.86-6.732-2.584c-1.27-1.36-1.995-2.958-2.176-4.794h1.836c0.158,1.428,0.748,2.664,1.768,3.706
				c1.292,1.315,3.06,1.972,5.304,1.972c2.38,0,4.205-0.6,5.474-1.802c0.952-0.906,1.428-2.062,1.428-3.468
				c0-1.179-0.425-2.21-1.275-3.094c-0.85-0.884-1.989-1.416-3.417-1.598l-4.488-0.578c-1.791-0.227-3.225-0.855-4.301-1.887
				c-1.077-1.031-1.615-2.431-1.615-4.199c0-1.746,0.702-3.264,2.108-4.556C112.176,0.703,114.16,0,116.585,0
				c1.292,0,2.533,0.244,3.723,0.731c1.19,0.488,2.125,1.128,2.805,1.921c1.11,1.292,1.722,2.686,1.836,4.182h-1.802
				c-0.159-1.201-0.601-2.221-1.326-3.06c-1.134-1.382-2.879-2.074-5.236-2.074c-1.927,0-3.457,0.488-4.59,1.462
				c-1.088,0.975-1.632,2.142-1.632,3.502c0,2.471,1.417,3.876,4.25,4.216l4.556,0.578c1.858,0.227,3.371,0.952,4.539,2.176
				C124.876,14.858,125.46,16.32,125.46,18.02z"/>
			<path fill="#ffffff" d="M216.273,24.547h-1.7V3.026l-5.882,4.318V5.44l6.052-4.522h1.53V24.547z"/>
			<path fill="#ffffff" d="M248.098,17.068c0,2.244-0.657,4.126-1.972,5.644c-1.315,1.52-3.095,2.278-5.338,2.278
				c-2.358,0-4.217-0.963-5.576-2.89c-1.383-1.927-2.074-5.066-2.074-9.418c0-4.782,0.861-8.114,2.584-9.996
				c1.36-1.496,3.037-2.244,5.032-2.244c1.903,0,3.484,0.567,4.743,1.7c1.258,1.133,1.932,2.618,2.022,4.454h-1.768
				c-0.091-1.382-0.578-2.482-1.462-3.298c-0.885-0.816-2.063-1.224-3.536-1.224c-1.52,0-2.766,0.533-3.74,1.598
				c-1.405,1.519-2.108,4.602-2.108,9.248c0.477-1.088,1.247-1.978,2.312-2.669s2.244-1.037,3.536-1.037
				c2.289,0,4.085,0.72,5.389,2.159C247.445,12.812,248.098,14.711,248.098,17.068z M244.97,21.54
				c0.929-1.213,1.394-2.703,1.394-4.472c0-1.768-0.471-3.258-1.411-4.471c-0.94-1.212-2.328-1.819-4.164-1.819
				c-1.406,0-2.607,0.476-3.604,1.428c-1.201,1.156-1.802,2.754-1.802,4.794c0,1.745,0.481,3.241,1.444,4.487
				c0.964,1.247,2.296,1.87,3.995,1.87C242.657,23.358,244.04,22.751,244.97,21.54z"/>
		</g>
		<g>
			<g>
				<polygon fill="#ffffff" points="20.181,11.687 19.994,11.5 17.181,14.314 14.367,11.5 14.181,11.687 16.994,14.5 14.181,17.314 
					14.367,17.502 17.181,14.687 19.994,17.502 20.181,17.314 17.367,14.5 				"/>
			</g>
		</g>
		<g>
			<g>
				<polygon fill="#ffffff" points="60.181,11.687 59.994,11.5 57.181,14.314 54.367,11.5 54.181,11.687 56.994,14.5 54.181,17.314 
					54.367,17.502 57.181,14.687 59.994,17.502 60.181,17.314 57.367,14.5 				"/>
			</g>
		</g>
		<g>
			<g>
				<polygon fill="#ffffff" points="98.181,11.687 97.994,11.5 95.181,14.314 92.367,11.5 92.181,11.687 94.994,14.5 92.181,17.314 
					92.367,17.502 95.181,14.687 97.994,17.502 98.181,17.314 95.367,14.5 				"/>
			</g>
		</g>
		<g>
			<g>
				<polygon fill="#ffffff" points="141.181,11.687 140.994,11.5 138.181,14.314 135.367,11.5 135.181,11.687 137.994,14.5 
					135.181,17.314 135.367,17.502 138.181,14.687 140.994,17.502 141.181,17.314 138.367,14.5 				"/>
			</g>
		</g>
		<line fill="none" stroke="#ffffff" stroke-width="2" stroke-miterlimit="10" x1="153.181" y1="14.5" x2="191.181" y2="14.5"/>
	</g>
</g>
</svg>
