
<svg version="1.1" id="Layer_1" xmlns="http://www.w3.org/2000/svg" xmlns:xlink="http://www.w3.org/1999/xlink" x="0px" y="0px"
	 width="110px" height="30px" viewBox="0 0 110 30" enable-background="new 0 0 110 30" xml:space="preserve">
<g>
	<g>
		<g>
			<path fill="#ffffff" d="M13.691,18.559h-0.608v-8.132h0.608V18.559z"/>
			<path fill="#ffffff" d="M28.314,11h-4.496v3.143h4.049v0.574h-4.049v3.842h-0.597v-8.132h5.093V11z"/>
			<path fill="#ffffff" d="M41.653,11h-2.592v7.559h-0.597V11h-2.581v-0.574h5.77V11z"/>
			<path fill="#ffffff" d="M55.405,16.356c0,0.612-0.214,1.132-0.643,1.56c-0.535,0.527-1.304,0.791-2.306,0.791
				c-0.971,0-1.728-0.29-2.271-0.871c-0.429-0.459-0.673-0.998-0.734-1.617h0.619c0.054,0.482,0.253,0.898,0.597,1.25
				c0.437,0.443,1.032,0.666,1.789,0.666c0.804,0,1.419-0.203,1.847-0.608c0.321-0.306,0.482-0.696,0.482-1.17
				c0-0.397-0.144-0.746-0.431-1.044c-0.286-0.298-0.671-0.478-1.152-0.539l-1.514-0.195c-0.604-0.076-1.088-0.289-1.451-0.637
				c-0.363-0.348-0.545-0.82-0.545-1.417c0-0.589,0.237-1.101,0.711-1.537c0.52-0.474,1.189-0.711,2.008-0.711
				c0.436,0,0.854,0.082,1.256,0.247s0.717,0.38,0.946,0.648c0.374,0.436,0.581,0.906,0.619,1.411h-0.608
				c-0.054-0.405-0.202-0.75-0.447-1.033c-0.382-0.466-0.971-0.699-1.766-0.699c-0.65,0-1.167,0.164-1.549,0.493
				c-0.367,0.329-0.551,0.722-0.551,1.181c0,0.833,0.478,1.308,1.434,1.422l1.537,0.195c0.627,0.077,1.138,0.321,1.531,0.734
				C55.208,15.29,55.405,15.783,55.405,16.356z"/>
			<path fill="#ffffff" d="M86.04,18.559h-0.574v-7.26l-1.984,1.457v-0.643l2.042-1.525h0.517V18.559z"/>
			<path fill="#ffffff" d="M96.775,16.035c0,0.757-0.222,1.393-0.665,1.904c-0.444,0.512-1.044,0.768-1.801,0.768
				c-0.796,0-1.423-0.324-1.882-0.975c-0.466-0.649-0.699-1.709-0.699-3.177c0-1.613,0.29-2.737,0.872-3.372
				c0.458-0.505,1.024-0.757,1.697-0.757c0.643,0,1.176,0.191,1.6,0.574c0.425,0.382,0.652,0.883,0.683,1.502h-0.597
				c-0.03-0.466-0.194-0.837-0.493-1.112c-0.298-0.275-0.695-0.413-1.192-0.413c-0.513,0-0.934,0.18-1.262,0.539
				c-0.475,0.512-0.711,1.552-0.711,3.12c0.16-0.367,0.42-0.667,0.779-0.9c0.359-0.233,0.758-0.35,1.193-0.35
				c0.772,0,1.378,0.243,1.817,0.729C96.556,14.6,96.775,15.24,96.775,16.035z M95.72,17.543c0.313-0.408,0.471-0.911,0.471-1.508
				c0-0.596-0.159-1.099-0.477-1.508c-0.317-0.409-0.785-0.614-1.404-0.614c-0.475,0-0.88,0.161-1.216,0.482
				c-0.406,0.39-0.608,0.929-0.608,1.617c0,0.59,0.162,1.094,0.487,1.515s0.774,0.631,1.348,0.631
				C94.94,18.157,95.406,17.953,95.72,17.543z"/>
		</g>
		<line fill="none" stroke="#ffffff" stroke-width="2" stroke-miterlimit="10" x1="65" y1="15" x2="78" y2="15"/>
	</g>
	<rect x="1" y="1" fill="none" stroke="#ffffff" stroke-width="2" stroke-miterlimit="10" width="108" height="28"/>
</g>
</svg>
